<?xml version="1.0" encoding="UTF-8" standalone="no"?>
<!DOCTYPE svg PUBLIC "-//W3C//DTD SVG 1.1//EN" "http://www.w3.org/Graphics/SVG/1.1/DTD/svg11.dtd">
<svg width="100%" height="100%" viewBox="0 0 512 512" version="1.1" xmlns="http://www.w3.org/2000/svg" xmlns:xlink="http://www.w3.org/1999/xlink" xml:space="preserve" xmlns:serif="http://www.serif.com/" style="fill-rule:evenodd;clip-rule:evenodd;stroke-linejoin:round;stroke-miterlimit:2;">
    <path d="M452,48L60,48C26.916,48 0,74.916 0,108L0,157.495L220.191,321.276C230.9,329.241 243.45,333.224 256,333.224C268.55,333.224 281.1,329.242 291.809,321.276L512,157.495L512,108C512,74.916 485.084,48 452,48ZM472,137.396L267.937,289.18C260.797,294.491 251.203,294.491 244.064,289.18L40,137.396L40,108C40,96.972 48.972,88 60,88L452,88C463.028,88 472,96.972 472,108L472,137.396ZM472,237.099L512,207.347L512,404C512,437.084 485.084,464 452,464L60,464C26.916,464 0,437.084 0,404L0,207.347L40,237.099L40,404C40,415.028 48.972,424 60,424L452,424C463.028,424 472,415.028 472,404L472,237.099Z" style="fill:rgb(241,240,241);fill-rule:nonzero;"/>
</svg>
