<?xml version="1.0" encoding="UTF-8" standalone="no"?>
<!DOCTYPE svg PUBLIC "-//W3C//DTD SVG 1.1//EN" "http://www.w3.org/Graphics/SVG/1.1/DTD/svg11.dtd">
<svg width="100%" height="100%" viewBox="0 0 512 512" version="1.1" xmlns="http://www.w3.org/2000/svg" xmlns:xlink="http://www.w3.org/1999/xlink" xml:space="preserve" xmlns:serif="http://www.serif.com/" style="fill-rule:evenodd;clip-rule:evenodd;stroke-linejoin:round;stroke-miterlimit:2;">
    <path d="M9.707,352.256L243.712,508.288C251.691,513.195 260.224,513.259 268.288,508.288L502.293,352.256C508.288,348.267 512,341.12 512,333.973L512,177.984C512,170.837 508.288,163.691 502.293,159.701L268.288,3.691C260.309,-1.216 251.776,-1.259 243.712,3.691L9.707,159.701C3.712,163.691 0,170.837 0,177.984L0,333.973C0,341.12 3.712,348.267 9.707,352.256ZM234.005,448.853L61.717,333.995L138.581,282.56L234.005,346.283L234.005,448.853ZM277.995,448.853L277.995,346.283L373.419,282.56L450.283,333.995L277.995,448.853ZM468.011,292.821L412.864,255.979L468.011,219.115L468.011,292.821ZM277.995,63.125L450.283,177.984L373.419,229.419L277.995,165.696L277.995,63.125ZM256,203.968L333.717,255.979L256,307.989L178.283,255.979L256,203.968ZM234.005,63.125L234.005,165.696L138.581,229.419L61.717,177.984L234.005,63.125ZM44.011,292.864L44.011,219.136L99.157,256L44.011,292.864Z" style="fill:rgb(238,238,238);fill-rule:nonzero;"/>
</svg>
