<?xml version="1.0" encoding="UTF-8" standalone="no"?>
<!DOCTYPE svg PUBLIC "-//W3C//DTD SVG 1.1//EN" "http://www.w3.org/Graphics/SVG/1.1/DTD/svg11.dtd">
<svg width="100%" height="100%" viewBox="0 0 512 512" version="1.1" xmlns="http://www.w3.org/2000/svg" xmlns:xlink="http://www.w3.org/1999/xlink" xml:space="preserve" xmlns:serif="http://www.serif.com/" style="fill-rule:evenodd;clip-rule:evenodd;stroke-linejoin:round;stroke-miterlimit:2;">
    <path d="M256.085,124.544C183.488,124.544 124.715,183.381 124.715,255.915C124.715,328.512 183.552,387.285 256.085,387.285C328.683,387.285 387.456,328.448 387.456,255.915C387.456,183.317 328.619,124.544 256.085,124.544ZM256.085,341.184C208.96,341.184 170.816,303.019 170.816,255.915C170.816,208.811 208.981,170.645 256.085,170.645C303.189,170.645 341.355,208.811 341.355,255.915C341.376,303.019 303.211,341.184 256.085,341.184Z" style="fill:rgb(238,238,238);fill-rule:nonzero;"/>
    <path d="M361.557,1.621C314.453,-0.576 197.781,-0.469 150.635,1.621C109.205,3.563 72.661,13.568 43.2,43.029C-6.037,92.267 0.256,158.613 0.256,255.915C0.256,355.499 -5.291,420.309 43.2,468.8C92.629,518.208 159.936,511.744 256.085,511.744C354.731,511.744 388.779,511.808 423.659,498.304C471.083,479.893 506.88,437.504 510.379,361.365C512.597,314.24 512.469,197.589 510.379,150.443C506.155,60.565 457.92,6.059 361.557,1.621ZM436.117,436.224C403.84,468.501 359.061,465.621 255.467,465.621C148.8,465.621 106.027,467.2 74.816,435.904C38.869,400.128 45.376,342.677 45.376,255.573C45.376,137.707 33.28,52.821 151.573,46.763C178.752,45.803 186.752,45.483 255.168,45.483L256.128,46.123C369.813,46.123 459.008,34.219 464.363,152.491C465.579,179.477 465.856,187.584 465.856,255.893C465.835,361.323 467.84,404.352 436.117,436.224Z" style="fill:rgb(238,238,238);fill-rule:nonzero;"/>
    <circle cx="392.661" cy="119.36" r="30.699" style="fill:rgb(238,238,238);"/>
</svg>
