<?xml version="1.0" encoding="UTF-8" standalone="no"?>
<!DOCTYPE svg PUBLIC "-//W3C//DTD SVG 1.1//EN" "http://www.w3.org/Graphics/SVG/1.1/DTD/svg11.dtd">
<svg width="100%" height="100%" viewBox="0 0 44 40" version="1.1" xmlns="http://www.w3.org/2000/svg" xmlns:xlink="http://www.w3.org/1999/xlink" xml:space="preserve" xmlns:serif="http://www.serif.com/" style="fill-rule:evenodd;clip-rule:evenodd;stroke-linejoin:round;stroke-miterlimit:2;">
    <g transform="matrix(1,0,0,1,-702,-265)">
        <g>
            <path d="M746,305L736.275,305L736.275,290.938C736.275,287.258 734.754,284.745 731.409,284.745C728.851,284.745 727.428,286.441 726.766,288.075C726.517,288.661 726.556,289.478 726.556,290.296L726.556,305L716.922,305C716.922,305 717.046,280.091 716.922,277.827L726.556,277.827L726.556,282.092C727.125,280.227 730.204,277.566 735.116,277.566C741.211,277.566 746,281.474 746,289.891L746,305ZM707.179,274.428L707.117,274.428C704.013,274.428 702,272.351 702,269.718C702,267.034 704.072,265 707.239,265C710.403,265 712.348,267.029 712.41,269.71C712.41,272.343 710.403,274.428 707.179,274.428ZM703.11,277.827L711.686,277.827L711.686,305L703.11,305L703.11,277.827Z" style="fill:rgb(241,240,241);"/>
        </g>
    </g>
</svg>
