<?xml version="1.0" encoding="UTF-8" standalone="no"?>
<!DOCTYPE svg PUBLIC "-//W3C//DTD SVG 1.1//EN" "http://www.w3.org/Graphics/SVG/1.1/DTD/svg11.dtd">
<svg width="100%" height="100%" viewBox="0 0 400 400" version="1.1" xmlns="http://www.w3.org/2000/svg" xmlns:xlink="http://www.w3.org/1999/xlink" xml:space="preserve" xmlns:serif="http://www.serif.com/" style="fill-rule:evenodd;clip-rule:evenodd;stroke-linejoin:round;stroke-miterlimit:2;">
    <g transform="matrix(1,0,0,1,-293.5,-324)">
        <g transform="matrix(0.578415,-0.815742,0.815742,0.578415,-231.306,548.246)">
            <text x="414.76px" y="497.905px" style="font-family:'JosefinSans-Bold', 'Josefin Sans';font-weight:700;font-size:50px;fill:#616161;">M</text>
        </g>
        <g transform="matrix(0.848095,-0.529844,0.529844,0.848095,-177.056,305.445)">
            <text x="444.167px" y="461.508px" style="font-family:'JosefinSans-Bold', 'Josefin Sans';font-weight:700;font-size:50px;fill:#616161;">I</text>
        </g>
        <g transform="matrix(0.971595,-0.236649,0.236649,0.971595,-93.8225,121.114)">
            <text x="457.606px" y="451.389px" style="font-family:'JosefinSans-Bold', 'Josefin Sans';font-weight:700;font-size:50px;fill:#616161;">C</text>
        </g>
        <g transform="matrix(0.974981,0.222289,-0.222289,0.974981,110.662,-98.2073)">
            <text x="491.606px" y="442.501px" style="font-family:'JosefinSans-Bold', 'Josefin Sans';font-weight:700;font-size:50px;fill:#616161;">H</text>
        </g>
        <g transform="matrix(0.770339,0.637634,-0.637634,0.770339,410.26,-234.69)">
            <text x="530.929px" y="452.181px" style="font-family:'JosefinSans-Bold', 'Josefin Sans';font-weight:700;font-size:50px;fill:#616161;">A</text>
        </g>
        <g transform="matrix(0.436531,0.899689,-0.899689,0.436531,741.114,-234.442)">
            <text x="557.723px" y="474.446px" style="font-family:'JosefinSans-Bold', 'Josefin Sans';font-weight:700;font-size:50px;fill:#616161;">L</text>
        </g>
    </g>
    <g transform="matrix(1,0,0,1,-293.5,-324)">
        <g transform="matrix(-0.651509,0.758641,-0.758641,-0.651509,1359.98,499.503)">
            <text x="565.264px" y="562.114px" style="font-family:'JosefinSans-Bold', 'Josefin Sans';font-weight:700;font-size:50px;fill:#616161;">B</text>
        </g>
        <g transform="matrix(-0.888683,0.458522,-0.458522,-0.888683,1299.09,856.98)">
            <text x="545.517px" y="586.182px" style="font-family:'JosefinSans-Bold', 'Josefin Sans';font-weight:700;font-size:50px;fill:#616161;">A</text>
        </g>
        <g transform="matrix(-0.999995,-0.00315138,0.00315138,-0.999995,1027.23,1207.75)">
            <text x="514.568px" y="603.067px" style="font-family:'JosefinSans-Bold', 'Josefin Sans';font-weight:700;font-size:50px;fill:#616161;">N</text>
        </g>
        <g transform="matrix(-0.885544,-0.464556,0.464556,-0.885544,610.081,1354.3)">
            <text x="471.875px" y="601.994px" style="font-family:'JosefinSans-Bold', 'Josefin Sans';font-weight:700;font-size:50px;fill:#616161;">A</text>
        </g>
        <g transform="matrix(-0.641257,-0.767326,0.767326,-0.641257,275.438,1299.68)">
            <text x="441.534px" y="585.452px" style="font-family:'JosefinSans-Bold', 'Josefin Sans';font-weight:700;font-size:50px;fill:#616161;">Š</text>
        </g>
    </g>
</svg>
